<svg width="1200" height="280" viewBox="0 0 1200 280" fill="none" xmlns="http://www.w3.org/2000/svg" role="img" aria-labelledby="title desc">
  <title id="title">MemX</title>
  <desc id="desc">AI agent 的自学习，自维护记忆</desc>
  <defs>
    <linearGradient id="bg" x1="0" x2="1200" y1="0" y2="280" gradientUnits="userSpaceOnUse">
      <stop stop-color="#F7FAFC"/>
      <stop offset="0.48" stop-color="#EEF7F3"/>
      <stop offset="1" stop-color="#F3F6FF"/>
    </linearGradient>
    <linearGradient id="line" x1="166" x2="1036" y1="44" y2="224" gradientUnits="userSpaceOnUse">
      <stop stop-color="#6BB7A8" stop-opacity="0.18"/>
      <stop offset="0.55" stop-color="#4D7CA8" stop-opacity="0.22"/>
      <stop offset="1" stop-color="#8C7BC8" stop-opacity="0.18"/>
    </linearGradient>
    <filter id="shadow" x="-20%" y="-20%" width="140%" height="140%" color-interpolation-filters="sRGB">
      <feDropShadow dx="0" dy="12" stdDeviation="18" flood-color="#1F2937" flood-opacity="0.10"/>
    </filter>
  </defs>
  <rect x="16" y="16" width="1168" height="248" rx="28" fill="url(#bg)" stroke="#D9E4EE"/>
  <g stroke="url(#line)" stroke-width="2">
    <path d="M114 210 C236 112 326 112 448 180 C576 250 669 42 805 88 C917 126 978 214 1092 82"/>
    <path d="M128 74 C260 151 382 36 516 104 C642 168 722 164 844 104 C944 55 1016 142 1080 178"/>
    <path d="M208 226 C322 186 428 210 540 134 C645 63 735 198 846 176 C944 156 1010 96 1096 126"/>
  </g>
  <g fill="#FFFFFF" stroke="#B9CBD8" filter="url(#shadow)">
    <circle cx="116" cy="210" r="8"/>
    <circle cx="208" cy="226" r="7"/>
    <circle cx="284" cy="116" r="6"/>
    <circle cx="448" cy="180" r="8"/>
    <circle cx="516" cy="104" r="7"/>
    <circle cx="642" cy="168" r="6"/>
    <circle cx="805" cy="88" r="8"/>
    <circle cx="846" cy="176" r="7"/>
    <circle cx="1016" cy="142" r="6"/>
    <circle cx="1092" cy="82" r="8"/>
  </g>
  <g font-family="Inter, ui-sans-serif, system-ui, -apple-system, BlinkMacSystemFont, 'Segoe UI', sans-serif">
    <text x="600" y="128" text-anchor="middle" fill="#15202B" font-size="78" font-weight="760" letter-spacing="0">MemX</text>
    <text x="600" y="177" text-anchor="middle" fill="#4A5B6B" font-size="30" font-weight="520" letter-spacing="0">AI agent 的自学习，自维护记忆</text>
  </g>
</svg>
