<svg width="1200" height="168" viewBox="0 0 1200 168" fill="none" xmlns="http://www.w3.org/2000/svg" role="img" aria-labelledby="title desc">
  <title id="title">支持的 agent</title>
  <desc id="desc">Codex、Claude Code 和 OpenClaw 支持原生加 hook；任何 MCP client 都可以通过 MCP 接入。</desc>
  <rect x="18" y="18" width="1164" height="132" rx="22" fill="#F8FAFC" stroke="#D7E0EA"/>
  <g font-family="Inter, ui-sans-serif, system-ui, -apple-system, BlinkMacSystemFont, 'Segoe UI', 'PingFang SC', 'Microsoft YaHei', sans-serif">
    <g transform="translate(58 43)">
      <rect width="238" height="82" rx="18" fill="#FFFFFF" stroke="#C9D5EA"/>
      <circle cx="42" cy="41" r="22" fill="#EEF4FF" stroke="#B9C8E8"/>
      <path d="M34 42L42 34L50 42M34 42L42 50L50 42" stroke="#405F9A" stroke-width="2.4" stroke-linecap="round" stroke-linejoin="round"/>
      <text x="82" y="36" fill="#162232" font-size="18" font-weight="720">Codex</text>
      <text x="82" y="60" fill="#2D7C70" font-size="13" font-weight="700">原生 + hooks + MCP</text>
    </g>
    <g transform="translate(336 43)">
      <rect width="238" height="82" rx="18" fill="#FFFFFF" stroke="#C9D5EA"/>
      <circle cx="42" cy="41" r="22" fill="#F3F0FF" stroke="#CEC5EE"/>
      <path d="M31 42C37 29 48 29 54 42C48 55 37 55 31 42Z" stroke="#6B5DA8" stroke-width="2.4" fill="none"/>
      <path d="M39 41H47" stroke="#6B5DA8" stroke-width="2.4" stroke-linecap="round"/>
      <text x="82" y="36" fill="#162232" font-size="18" font-weight="720">Claude Code</text>
      <text x="82" y="60" fill="#2D7C70" font-size="13" font-weight="700">原生 + hooks + MCP</text>
    </g>
    <g transform="translate(614 43)">
      <rect width="238" height="82" rx="18" fill="#FFFFFF" stroke="#C9D5EA"/>
      <circle cx="42" cy="41" r="22" fill="#ECF8F4" stroke="#B8D9D0"/>
      <path d="M31 48C37 34 47 31 55 37M35 52C42 44 49 43 57 49" stroke="#2D7C70" stroke-width="2.4" stroke-linecap="round"/>
      <text x="82" y="36" fill="#162232" font-size="18" font-weight="720">OpenClaw</text>
      <text x="82" y="60" fill="#2D7C70" font-size="13" font-weight="700">原生 + hooks</text>
    </g>
    <g transform="translate(892 43)">
      <rect width="250" height="82" rx="18" fill="#FFFFFF" stroke="#C9D5EA"/>
      <circle cx="42" cy="41" r="22" fill="#FFF7EA" stroke="#E8D4B2"/>
      <circle cx="34" cy="41" r="4" fill="#9B6B22"/>
      <circle cx="49" cy="32" r="4" fill="#9B6B22"/>
      <circle cx="51" cy="51" r="4" fill="#9B6B22"/>
      <path d="M38 39L45 34M38 43L47 49" stroke="#9B6B22" stroke-width="2" stroke-linecap="round"/>
      <text x="82" y="36" fill="#162232" font-size="18" font-weight="720">MCP clients</text>
      <text x="82" y="60" fill="#7A5A21" font-size="13" font-weight="700">仅 MCP 接入</text>
    </g>
  </g>
</svg>
